<svg height="511pt" viewBox="-42 1 511 511.99948" width="511pt" xmlns="http://www.w3.org/2000/svg"><path d="m396.394531 341.195312v102.8125h-363.863281v-102.8125l21.167969-13.59375 36.675781-6.292968 44.21875-16.671875 47.648438 11.3125 32.222656 14.394531 37.359375-12.683594 40.109375-14.738281 47.988281 18.386719 25.660156 9.035156zm0 0" fill="#609ce7"/><path d="m396.394531 300.007812v-16.019531c0-28.074219-6.351562-54.667969-17.714843-78.402343l-23.34375-16.808594-65.117188 24.335937-75.753906-27.078125-82.613282 23.652344-58.261718-19.539062-23.339844 15.4375c-11.363281 23.734374-17.71875 50.328124-17.71875 78.402343v16.019531l21.167969 27.59375 36.679687-6.292968 44.21875-16.671875 47.644532 11.3125 32.222656 14.394531 37.359375-12.683594 40.105469-14.738281 47.988281 18.386719 25.664062 9.035156zm0 0" fill="#e95666"/><path d="m355.335938 168.855469c-33.359376-40.773438-84.078126-66.800781-140.871094-66.800781-56.796875 0-107.515625 26.027343-140.875 66.800781v21.292969l58.261718 19.539062 82.613282-23.652344 75.753906 27.078125 65.117188-24.335937zm0 0" fill="#609ce7"/><path d="m63.4375 325.933594-9.738281 1.667968-21.167969 13.59375v102.8125h30.90625zm0 0" fill="#4d89d7"/><path d="m396.394531 376.023438h-363.859375c-17.691406 0-32.035156 14.339843-32.035156 32.03125v71.914062c0 17.6875 14.34375 32.03125 32.035156 32.03125h363.859375c17.691407 0 32.03125-14.34375 32.03125-32.035156v-71.910156c0-17.691407-14.339843-32.03125-32.03125-32.03125zm0 0" fill="#e95666"/><path d="m31.40625 479.964844v-71.910156c0-17.691407 14.339844-32.03125 32.03125-32.03125h-30.902344c-17.691406 0-32.035156 14.339843-32.035156 32.03125v71.910156c0 17.695312 14.34375 32.035156 32.035156 32.035156h30.902344c-17.691406 0-32.03125-14.339844-32.03125-32.035156zm0 0" fill="#d64655"/><path d="m73.589844 168.855469v21.292969l13.328125 4.46875c5.089843-9.046876 10.964843-17.675782 17.578125-25.761719 30.300781-37.035157 74.925781-61.902344 125.417968-66.148438-.027343-.003906-.058593-.003906-.085937-.007812-4.75-.402344-9.519531-.613281-14.28125-.640625-.363281-.003906-.722656-.003906-1.085937-.003906-56.792969 0-107.511719 26.027343-140.871094 66.800781zm0 0" fill="#4d89d7"/><path d="m63.4375 325.933594v-41.945313c0-31.332031 8.210938-62.234375 23.480469-89.371093l-13.328125-4.46875-23.226563 15.363281c-9.898437 20.742187-15.859375 43.300781-17.417969 66.328125-.632812 9.371094-.414062 18.785156-.414062 28.171875l21.167969 27.59375zm0 0" fill="#d64655"/><path d="m378.679688 205.585938c-13.207032-3.464844-27.695313-.945313-39.027344 7.539062-14.230469 10.652344-31.148438 16.28125-48.917969 16.28125-17.78125 0-34.695313-5.625-48.929687-16.28125-16.09375-12.0625-38.59375-12.0625-54.695313 0-14.222656 10.652344-31.140625 16.28125-48.917969 16.28125-17.769531 0-34.6875-5.625-48.917968-16.28125-11.332032-8.484375-25.824219-11.003906-39.027344-7.539062 6.316406-13.203126 14.171875-25.523438 23.34375-36.730469 13.472656 1.914062 26.179687 7.167969 37.257812 15.457031 16.101563 12.0625 38.59375 12.0625 54.695313 0 14.222656-10.65625 31.140625-16.28125 48.917969-16.28125 17.78125 0 34.699218 5.625 48.917968 16.28125 16.105469 12.0625 38.59375 12.0625 54.699219 0 11.074219-8.289062 23.785156-13.542969 37.257813-15.457031 9.171874 11.207031 17.027343 23.527343 23.34375 36.730469zm0 0" fill="#e4e7eb"/><path d="m396.394531 300.007812v41.1875c-9.285156 3.585938-19.199219 5.4375-29.398437 5.4375-17.769532 0-34.6875-5.625-48.917969-16.277343-16.105469-12.0625-38.59375-12.050781-54.699219 0-14.21875 10.652343-31.136718 16.277343-48.917968 16.277343-17.777344 0-34.695313-5.625-48.917969-16.277343-16.101563-12.0625-38.59375-12.0625-54.695313 0-14.234375 10.652343-31.148437 16.277343-48.917968 16.277343-10.203126 0-20.117188-1.851562-29.402344-5.4375v-41.1875l2.046875 1.53125c16.105469 12.054688 38.59375 12.0625 54.695312 0 14.234375-10.652343 31.152344-16.277343 48.921875-16.277343 17.777344 0 34.695313 5.625 48.925782 16.277343 16.09375 12.0625 38.59375 12.0625 54.6875 0 14.234374-10.652343 31.148437-16.277343 48.929687-16.277343 17.769531 0 34.683594 5.625 48.917969 16.277343 16.101562 12.054688 38.59375 12.054688 54.695312 0zm0 0" fill="#e4e7eb"/><path d="m111.304688 454.5625c-4.265626 0-7.726563-3.460938-7.726563-7.726562v-18.671876c0-4.265624 3.460937-7.726562 7.726563-7.726562 4.269531 0 7.726562 3.460938 7.726562 7.726562v18.671876c0 4.265624-3.457031 7.726562-7.726562 7.726562zm0 0" fill="#434a53"/><path d="m317.621094 454.5625c-4.265625 0-7.726563-3.460938-7.726563-7.726562v-18.671876c0-4.265624 3.460938-7.726562 7.726563-7.726562s7.726562 3.460938 7.726562 7.726562v18.671876c0 4.265624-3.460937 7.726562-7.726562 7.726562zm0 0" fill="#434a53"/><path d="m214.464844 464.527344c-12.152344 0-23.554688-5.066406-31.28125-13.90625-2.808594-3.214844-2.480469-8.09375.734375-10.902344 3.210937-2.808594 8.089843-2.480469 10.902343.734375 4.789063 5.480469 11.949219 8.621094 19.644532 8.621094 7.691406 0 14.851562-3.140625 19.640625-8.621094 2.808593-3.214844 7.691406-3.542969 10.902343-.734375 3.214844 2.808594 3.539063 7.691406.734376 10.902344-7.726563 8.839844-19.125 13.90625-31.277344 13.90625zm0 0" fill="#434a53"/><g fill="#e4e7eb"><path d="m233.601562 251.332031-13.136718-13.136719c-3.316406-3.316406-8.6875-3.316406-12.003906 0l-13.136719 13.136719c-3.316407 3.316407-3.316407 8.6875 0 12l13.136719 13.140625c3.316406 3.3125 8.6875 3.3125 12 0l13.140624-13.140625c3.3125-3.3125 3.3125-8.683593 0-12zm0 0"/><path d="m98.898438 251.332031-13.136719-13.136719c-3.316407-3.316406-8.6875-3.316406-12 0l-13.136719 13.136719c-3.316406 3.316407-3.316406 8.6875 0 12l13.136719 13.140625c3.3125 3.3125 8.6875 3.3125 12 0l13.136719-13.140625c3.316406-3.3125 3.316406-8.683593 0-12zm0 0"/><path d="m330.027344 251.332031 13.136718-13.136719c3.316407-3.316406 8.6875-3.316406 12 0l13.140626 13.136719c3.3125 3.316407 3.3125 8.6875 0 12l-13.136719 13.140625c-3.316407 3.3125-8.6875 3.3125-12.003907 0l-13.136718-13.140625c-3.316406-3.3125-3.316406-8.683593 0-12zm0 0"/></g><path d="m63.4375 346.605469v-36.050781c-10.148438.328124-20.390625-2.671876-28.863281-9.015626l-2.042969-1.53125v41.1875c9.285156 3.589844 19.199219 5.4375 29.398438 5.4375.503906 0 1.003906-.019531 1.507812-.027343zm0 0" fill="#cacfd7"/><path d="m80.171875 207.847656c5.035156-10.949218 11.164063-21.40625 18.304687-31.191406-7.820312-3.933594-16.195312-6.566406-24.886718-7.800781-.007813.007812-.011719.015625-.019532.023437-2.667968 3.242188-5.199218 6.605469-7.621093 10.03125-5.964844 8.441406-11.1875 17.363282-15.613281 26.65625 9.851562-2.566406 20.410156-1.800781 29.835937 2.28125zm0 0" fill="#cacfd7"/><path d="m273.15625 42.84375c-4.351562-3.371094-7.207031-8.320312-7.953125-13.777344-1.46875-10.726562-10.839844-18.589844-21.65625-18.167968-5.503906.210937-10.871094-1.742188-14.949219-5.441407-8.019531-7.277343-20.25-7.277343-28.269531 0-4.078125 3.699219-9.445313 5.652344-14.945313 5.441407-10.820312-.421876-20.191406 7.441406-21.65625 18.167968-.746093 5.457032-3.601562 10.40625-7.953124 13.777344-8.558594 6.632812-10.683594 18.679688-4.910157 27.839844 2.9375 4.660156 3.925781 10.285156 2.761719 15.667968-2.292969 10.582032 3.824219 21.175782 14.136719 24.480469 5.242187 1.683594 9.617187 5.351563 12.183593 10.226563 5.046876 9.578125 16.542969 13.761718 26.566407 9.667968 5.097656-2.082031 10.808593-2.082031 15.90625 0 10.023437 4.09375 21.519531-.089843 26.566406-9.667968 2.566406-4.871094 6.941406-8.542969 12.183594-10.226563 10.3125-3.304687 16.425781-13.898437 14.136719-24.480469-1.167969-5.382812-.175782-11.007812 2.761718-15.667968 5.769532-9.160156 3.644532-21.207032-4.910156-27.839844zm0 0" fill="#e95666"/><path d="m200.328125 5.457031c-4.078125 3.699219-9.445313 5.652344-14.945313 5.441407-10.820312-.421876-20.191406 7.441406-21.65625 18.167968-.746093 5.457032-3.601562 10.40625-7.953124 13.777344-8.558594 6.632812-10.683594 18.679688-4.910157 27.839844 2.9375 4.660156 3.925781 10.285156 2.761719 15.667968-2.292969 10.582032 3.824219 21.175782 14.136719 24.480469 3.113281 1 5.914062 2.714844 8.21875 4.957031-.003907-.007812-.007813-.015624-.007813-.023437-22.367187-68.824219 24.355469-110.308594 24.355469-110.308594zm0 0" fill="#d64655"/></svg>