<svg height="511pt" viewBox="0 -7 511.99935 511" width="511pt" xmlns="http://www.w3.org/2000/svg"><path d="m273.882812 97.925781h-139.78125l-8.1875 2.289063c-28.089843 7.855468-50.367187 29.28125-59.3125 57.046875l-47.808593 148.40625 64.078125 23.949219 37.53125-97.085938v245.132812c0 11.113282 9.011718 20.125 20.125 20.125h140.714844l41.207031-238.074218-14.023438-103.558594zm0 0" fill="#e95666"/><path d="m87.207031 167.5625c8.945313-27.765625 31.222657-49.1875 59.3125-57.046875l8.183594-2.289063h125.289063l-6.109376-10.300781h-139.78125l-8.1875 2.289063c-28.089843 7.855468-50.367187 29.28125-59.3125 57.046875l-47.808593 148.40625 21.351562 7.980469zm0 0" fill="#d64655"/><path d="m445.398438 157.261719c-8.945313-27.765625-31.222657-49.191407-59.3125-57.046875l-8.1875-2.289063h-104.015626l34.542969 58.230469-49.511719 35.601562 2.589844 27.179688 19.738282 40.777344v238.074218h90.230468c11.113282 0 20.125-9.011718 20.125-20.125v-245.132812l37.53125 97.085938 64.078125-23.953126zm0 0" fill="#e95666"/><path d="m281.199219 201.238281c32.714843-6.410156 67.917969-30.335937 83.25-57.382812 15.714843-27.730469 18.933593-63.582031 3.570312-92.167969-21.464843-39.949219-70.101562-51.1875-112.019531-51.1875-147.566406 0-141.644531 127.355469-84.949219 170.867188 62.621094 48.058593 110.191407 88.347656 110.191407 88.347656v-55.972656z" fill="#e4e7eb"/><path d="m281.242188 190.785156h30.164062v307.003906h-30.164062zm0 0" fill="#d64655"/><path d="m280.34375 131.605469-30.621094 13.511719c18.992188 12.542968 30.671875 33.480468 31.476563 56.121093 10.050781-1.96875 20.332031-5.597656 30.207031-10.453125-1.921875-17.601562-8.570312-44.199218-31.0625-59.179687zm0 0" fill="#cac8c9"/><path d="m256 149.785156c1.992188-1.660156 4.085938-3.21875 6.277344-4.667968 21.519531-14.214844 46.148437-35.976563 46.148437-61.125 0-53.398438-52.425781-52.101563-52.425781-52.101563s-52.425781-1.296875-52.425781 52.101563c0 25.148437 24.628906 46.910156 46.148437 61.125zm0 0" fill="#3a4047"/><path d="m420.03125 346.167969-8.625-23.078125c-3.25-8.691406 1.164062-18.375 9.859375-21.625l59.410156-22.207032c8.695313-3.25 18.378907 1.164063 21.628907 9.855469l8.625 23.078125c3.25 8.695313-1.164063 18.378906-9.855469 21.625l-59.414063 22.210938c-8.695312 3.25-18.378906-1.164063-21.628906-9.859375zm0 0" fill="#e4e7eb"/><path d="m91.96875 346.167969 8.625-23.078125c3.25-8.691406-1.164062-18.375-9.855469-21.625l-59.414062-22.207032c-8.695313-3.25-18.378907 1.164063-21.628907 9.855469l-8.625 23.078125c-3.253906 8.695313 1.164063 18.378906 9.855469 21.625l59.414063 22.210938c8.695312 3.25 18.378906-1.164063 21.628906-9.859375zm0 0" fill="#e4e7eb"/><path d="m28.46875 340.277344c-8.695312-3.25-13.109375-12.933594-9.859375-21.628906l8.628906-23.074219c3.039063-8.140625 11.722657-12.527344 19.953125-10.386719l-15.867187-5.933594c-8.695313-3.25-18.378907 1.164063-21.628907 9.859375l-8.625 23.078125c-3.253906 8.695313 1.164063 18.378906 9.855469 21.628906zm0 0" fill="#cac8c9"/><g fill="#e4e7eb"><path d="m251.820312 305.207031c0 7.773438-6.300781 14.074219-14.074218 14.074219-7.777344 0-14.078125-6.300781-14.078125-14.074219 0-7.777343 6.300781-14.078125 14.078125-14.078125 7.773437 0 14.074218 6.300782 14.074218 14.078125zm0 0"/><path d="m251.820312 373.71875c0 7.777344-6.300781 14.078125-14.074218 14.078125-7.777344 0-14.078125-6.300781-14.078125-14.078125 0-7.773438 6.300781-14.078125 14.078125-14.078125 7.773437 0 14.074218 6.304687 14.074218 14.078125zm0 0"/><path d="m251.820312 442.234375c0 7.777344-6.300781 14.078125-14.074218 14.078125-7.777344 0-14.078125-6.300781-14.078125-14.078125 0-7.773437 6.300781-14.078125 14.078125-14.078125 7.773437 0 14.074218 6.304688 14.074218 14.078125zm0 0"/></g></svg>