<?xml version="1.0" encoding="iso-8859-1"?>
<!-- Generator: Adobe Illustrator 19.0.0, SVG Export Plug-In . SVG Version: 6.00 Build 0)  -->
<svg version="1.1" id="Capa_1" xmlns="http://www.w3.org/2000/svg" xmlns:xlink="http://www.w3.org/1999/xlink" x="0px" y="0px"
	 viewBox="0 0 512 512" style="enable-background:new 0 0 512 512;" xml:space="preserve">
<g transform="translate(-1)">
	<path style="fill:#FDD7AD;" d="M208.228,30.985C188.366,11.093,161.392-0.059,133.282,0C99.028-0.006,66.308,14.204,42.93,39.239
		S7.612,97.888,9.96,132.061l9.181,79.272l9.092,78.83l15.625,135.062c5.655,49.448,47.51,86.783,97.28,86.775h0.088
		c54.115-0.002,97.984-43.871,97.986-97.986V105.931C239.271,77.821,228.12,50.847,208.228,30.985z"/>
	<g>
		<path style="fill:#802D40;" d="M28.233,290.163l-9.092-78.83c3.443-2.825,21.274-18.097,41.401-37.517
			c3.09-2.913,6.179-6.003,9.269-9.092c14.201-13.872,27.36-28.772,39.371-44.579c1.854-2.56,3.531-5.032,5.032-7.503
			c1.125-1.617,2.157-3.297,3.09-5.032c0.909-1.513,1.734-3.075,2.472-4.679c1.222-2.468,2.226-5.037,3.001-7.68
			c0.353-1.236,0.618-2.383,0.883-3.443c0.173-1.11,0.261-2.231,0.265-3.354c0.209,1.463,0.327,2.937,0.353,4.414
			C128.338,163.399,38.297,277.716,28.233,290.163z"/>
		<path style="fill:#802D40;" d="M239.213,192.706v80.508C222.617,257.06,127.808,161.898,124.63,92.866
			c-0.145-1.496-0.204-2.999-0.177-4.502C129.397,120.409,222.175,181.672,239.213,192.706z"/>
	</g>
	<path style="fill:#FDD7AD;" d="M380.719,0c-28.106-0.038-55.072,11.111-74.946,30.985s-31.023,46.84-30.985,74.946v308.083
		c0.002,54.115,43.871,97.984,97.986,97.986h0.088c49.778-0.016,91.644-37.328,97.368-86.775l15.537-135.062l9.092-78.83
		l9.181-79.272c2.348-34.173-9.592-67.787-32.97-92.822C447.692,14.204,414.972-0.006,380.719,0z"/>
	<g>
		<path style="fill:#802D40;" d="M389.546,88.364c0.013,0.737-0.017,1.474-0.088,2.207c0.013,0.766-0.016,1.532-0.088,2.295
			c-3.178,69.032-97.986,164.193-114.582,180.348v-80.508C291.825,181.672,384.603,120.409,389.546,88.364z"/>
		<path style="fill:#802D40;" d="M494.859,211.333l-9.092,78.83c-10.063-12.447-100.105-126.764-96.044-197.297
			c0-0.794,0.088-1.589,0.088-2.295c0.088-0.794,0.177-1.501,0.265-2.207C390.253,122.174,486.473,204.271,494.859,211.333z"/>
	</g>
</g>
<g>
</g>
<g>
</g>
<g>
</g>
<g>
</g>
<g>
</g>
<g>
</g>
<g>
</g>
<g>
</g>
<g>
</g>
<g>
</g>
<g>
</g>
<g>
</g>
<g>
</g>
<g>
</g>
<g>
</g>
</svg>
