<svg height="512pt" viewBox="-25 0 512 512.00067" width="512pt" xmlns="http://www.w3.org/2000/svg"><path d="m460.960938 455.890625-35.851563 28.976563-36.234375-20.132813-38.621094-162.492187c.199219 1.914062 14.246094 98.671874-3.171875 164.269531l-116.40625 21.558593-116.433593-21.558593c-17.394532-65.609375-3.347657-162.355469-3.148438-164.269531l-38.621094 162.492187-36.234375 20.132813-35.851562-28.976563c3.019531-83.921875 22.691406-160.324219 31.957031-195.757813 5.453125-20.847656 18.773438-38.769531 37.105469-50.097656l72.699219-44.964844h177.042968l72.707032 44.964844c18.320312 11.328125 31.652343 29.25 37.105468 50.097656 9.257813 35.441407 28.933594 111.835938 31.957032 195.757813zm0 0" fill="#8bbe59"/><path d="m319.191406 165.070312h-177.042968l-26.511719 16.398438c12.839843 15.832031 28.882812 30.527344 47.621093 43.496094 19.894532 13.769531 43.203126 21.046875 67.414063 21.046875 24.207031 0 47.519531-7.277344 67.414063-21.046875 18.734374-12.96875 34.777343-27.660156 47.621093-43.492188zm0 0" fill="#7aa544"/><path d="m230.671875 0c-135 0-161.386719 122.339844-49.828125 199.550781 29.964844 20.742188 69.691406 20.742188 99.65625 0 111.558594-77.210937 85.175781-199.550781-49.828125-199.550781zm0 0" fill="#8bbe59"/><g fill="#7aa544"><path d="m278.925781 74.886719h-96.519531c-25.59375 0-42.265625 27.394531-29.996094 49.859375 9.382813 17.179687 25.253906 34.1875 46.414063 48.832031 9.394531 6.503906 20.40625 9.941406 31.847656 9.941406s22.457031-3.4375 31.851563-9.941406c20.859374-14.4375 36.578124-31.167969 46.007812-48.097656 12.636719-22.683594-3.640625-50.59375-29.605469-50.59375zm0 0"/><path d="m.386719 455.890625c-.4101565 11.527344-.507813 23.199219-.226563 34.929687.21875 8.984376 7.027344 16.441407 15.949219 17.535157l28.558594 3.507812c9.183593 1.128907 17.742187-4.828125 19.882812-13.828125l7.921875-33.300781zm0 0"/><path d="m460.960938 455.890625-72.085938 8.84375 7.921875 33.304687c2.136719 9 10.699219 14.953126 19.882813 13.824219l28.558593-3.507812c8.921875-1.09375 15.730469-8.546875 15.945313-17.535157.285156-11.726562.1875-23.398437-.222656-34.929687zm0 0"/><path d="m114.242188 466.511719c2.816406 10.597656 6.453124 20.386719 11.097656 28.832031 4.875 8.859375 14.261718 14.289062 24.375 14.289062h161.910156c10.113281 0 19.496094-5.429687 24.371094-14.289062 4.648437-8.441406 8.277344-18.226562 11.085937-28.828125h-232.839843zm0 0"/></g><path d="m176.605469 318.34375c-8.234375 0-15.175781-6.382812-15.742188-14.722656-3.675781-53.996094 9.292969-95.085938 9.847657-96.808594 2.667968-8.304688 11.558593-12.875 19.867187-10.203125 8.296875 2.664063 12.867187 11.546875 10.210937 19.847656-.179687.566407-11.644531 37.496094-8.410156 85.019531.589844 8.703126-5.984375 16.238282-14.6875 16.832032-.363281.023437-.726562.035156-1.085937.035156zm0 0" fill="#e4e7eb"/><path d="m284.738281 318.34375c8.238281 0 15.175781-6.382812 15.742188-14.722656 3.675781-53.996094-9.292969-95.085938-9.84375-96.808594-2.671875-8.304688-11.5625-12.875-19.871094-10.203125-8.296875 2.664063-12.863281 11.546875-10.210937 19.847656.179687.566407 11.644531 37.496094 8.414062 85.019531-.59375 8.703126 5.980469 16.238282 14.683594 16.832032.363281.023437.726562.035156 1.085937.035156zm0 0" fill="#e4e7eb"/><path d="m165.484375 385.378906c-4.269531 0-7.726563-3.457031-7.726563-7.726562v-11.796875c0-4.265625 3.457032-7.726563 7.726563-7.726563s7.726563 3.460938 7.726563 7.726563v11.796875c0 4.269531-3.460938 7.726562-7.726563 7.726562zm0 0" fill="#434a53"/><path d="m295.863281 385.378906c-4.265625 0-7.726562-3.457031-7.726562-7.726562v-11.796875c0-4.265625 3.460937-7.726563 7.726562-7.726563 4.269531 0 7.726563 3.460938 7.726563 7.726563v11.796875c0 4.269531-3.457032 7.726562-7.726563 7.726562zm0 0" fill="#434a53"/><path d="m230.675781 391.679688c-8.503906 0-16.488281-3.558594-21.910156-9.761719-2.808594-3.214844-2.480469-8.09375.734375-10.902344s8.09375-2.480469 10.902344.734375c2.484375 2.84375 6.230468 4.476562 10.273437 4.476562 4.039063 0 7.785157-1.632812 10.269531-4.476562 2.8125-3.214844 7.691407-3.542969 10.902344-.734375 3.214844 2.808594 3.542969 7.6875.734375 10.902344-5.421875 6.203125-13.40625 9.761719-21.90625 9.761719zm0 0" fill="#434a53"/></svg>