<?xml version="1.0" encoding="iso-8859-1"?>
<!-- Generator: Adobe Illustrator 19.0.0, SVG Export Plug-In . SVG Version: 6.00 Build 0)  -->
<svg version="1.1" id="Capa_1" xmlns="http://www.w3.org/2000/svg" xmlns:xlink="http://www.w3.org/1999/xlink" x="0px" y="0px"
	 viewBox="0 0 512 512" style="enable-background:new 0 0 512 512;" xml:space="preserve">
<path style="fill:#42210B;" d="M233.931,344.276v141.241c0,14.627,11.855,26.483,26.483,26.483l0,0l0,0
	c14.627,0,26.483-11.855,26.483-26.483l0,0V344.276H233.931z"/>
<path style="fill:#E65848;" d="M256,0L256,0c65.818,0,119.172,53.354,119.172,119.172v233.931c0,19.5-15.81,35.31-35.31,35.31
	H172.138c-19.5,0-35.31-15.81-35.31-35.31V119.172C136.828,53.354,190.182,0,256,0z"/>
<path style="fill:#FDC536;" d="M172.138,167.724v70.621c0,9.754,7.901,17.655,17.655,17.655c9.754,0,17.655-7.901,17.655-17.655
	v-70.621c0-9.754,7.901-17.655,17.655-17.655c9.754,0,17.655,7.901,17.655,17.655v8.828c0,9.754,7.901,17.655,17.655,17.655
	c9.754,0,17.655-7.901,17.655-17.655v-8.828c0-9.754,7.901-17.655,17.655-17.655h79.448v-30.897C375.172,53.354,321.818,0,256,0
	S136.828,53.354,136.828,119.172v30.897h17.655C164.237,150.069,172.138,157.97,172.138,167.724z"/>
<g>
</g>
<g>
</g>
<g>
</g>
<g>
</g>
<g>
</g>
<g>
</g>
<g>
</g>
<g>
</g>
<g>
</g>
<g>
</g>
<g>
</g>
<g>
</g>
<g>
</g>
<g>
</g>
<g>
</g>
</svg>
