<svg height="512pt" viewBox="-8 0 512 512.00026" width="512pt" xmlns="http://www.w3.org/2000/svg"><path d="m316.585938 223.324219c17.785156-18.207031 30.863281-36.226563 39.800781-54.789063 15.683593-32.566406 17.777343-67.058594 5.898437-97.117187-10.015625-25.347657-29.453125-46.074219-54.734375-58.363281-17.820312-8.664063-38.019531-13.054688-60.042969-13.054688-22.023437 0-42.226562 4.390625-60.042968 13.050781-25.28125 12.289063-44.71875 33.019531-54.734375 58.367188-11.882813 30.058593-9.785157 64.550781 5.894531 97.117187 10.589844 21.992188 26.992188 43.21875 50.144531 64.902344l58.738281 55.015625m-58.738281-55.015625 58.738281 55.015625m0-117.726563c-55.359374-51.851562-41.511718-84.800781 0-84.800781 41.507813 0 55.359376 32.949219 0 84.800781zm0 0" fill="#e95666"/><path d="m247.507812 170.726562c8.824219-8.269531 15.886719-16.054687 21.363282-23.300781l3.84375 5.414063c5.148437 7.261718 25.550781 20.933594 43.554687 32.992187 6.589844 4.417969 13.53125 9.066407 20.722657 14.003907-5.957032 7.832031-12.742188 15.644531-20.40625 23.488281l-69.078126-37.886719zm0 0" fill="#d64655"/><path d="m247.507812 288.453125c65.726563 65.394531 76.5 128.40625 118.929688 209.214844 6.882812 13.117187 23.125 18.144531 36.222656 11.21875l78.089844-41.292969c11.765625-6.222656 17.175781-20.148438 12.699219-32.683594-61.46875-172.191406-216.726563-223.007812-245.941407-264.183594zm0 0" fill="#e95666"/><path d="m354.421875 473.625c3.738281 7.839844 7.722656 15.855469 12.019531 24.050781 6.882813 13.113281 23.125 18.140625 36.21875 11.210938l78.085938-41.296875c11.769531-6.21875 17.183594-20.148438 12.703125-32.683594-3.554688-9.957031-7.421875-19.515625-11.566407-28.679688zm0 0" fill="#8bbe59"/><path d="m247.507812 288.453125c-59.0625 58.761719-73.746093 115.601563-106.914062 185.171875l-127.460938-67.398438c41.984376-92.992187 111.875-146.441406 165.289063-182.90625zm0 0" fill="#e95666"/><path d="m178.421875 223.320312c-8.175781 5.582032-16.738281 11.566407-25.527344 18.023438 4.628907 4.886719 9.53125 9.765625 14.746094 14.652344l58.738281 55.015625c.085938.078125.175782.152343.261719.230469 6.304687-7.582032 13.210937-15.171876 20.867187-22.789063zm0 0" fill="#d64655"/><path d="m140.59375 473.625c-3.738281 7.839844-7.722656 15.855469-12.019531 24.050781-6.886719 13.113281-23.125 18.140625-36.21875 11.210938l-78.085938-41.296875c-11.769531-6.21875-17.183593-20.148438-12.703125-32.683594 3.554688-9.957031 7.421875-19.519531 11.566406-28.679688zm0 0" fill="#8bbe59"/></svg>