<?xml version="1.0" encoding="iso-8859-1"?>
<!-- Generator: Adobe Illustrator 19.0.0, SVG Export Plug-In . SVG Version: 6.00 Build 0)  -->
<svg version="1.1" id="Layer_1" xmlns="http://www.w3.org/2000/svg" xmlns:xlink="http://www.w3.org/1999/xlink" x="0px" y="0px"
	 viewBox="0 0 512 512" style="enable-background:new 0 0 512 512;" xml:space="preserve">
<path style="fill:#FF9940;" d="M347.951,122.253l-8.359-8.359H172.408l-8.359,8.359c-20.037,28.988-35.863,64.117-43.332,104.542
	c-6.462,34.972-8.143,74.073-4.997,116.216c6.576,88.105,31.086,160.694,32.125,163.518c1.21,3.287,4.342,5.471,7.844,5.471h200.62
	c3.502,0,6.634-2.184,7.844-5.47c1.04-2.825,25.549-75.413,32.125-163.518c3.146-42.144,1.465-81.244-4.997-116.216
	C383.814,186.37,367.988,151.241,347.951,122.253z"/>
<path style="fill:#F5760F;" d="M172.636,506.53c-1.04-2.825-25.549-75.413-32.125-163.518c-3.146-42.144-1.465-81.244,4.997-116.216
	c7.469-40.425,23.295-75.554,43.332-104.542l8.359-8.359h-24.79l-8.359,8.359c-20.037,28.988-35.863,64.117-43.332,104.542
	c-6.462,34.972-8.143,74.073-4.997,116.216c6.576,88.105,31.086,160.694,32.125,163.518c1.21,3.286,4.342,5.47,7.844,5.47h24.79
	C176.978,512,173.847,509.816,172.636,506.53z"/>
<path style="fill:#EDECEB;" d="M347.951,25.078C347.951,11.25,336.701,0,322.873,0H189.127c-13.827,0-25.078,11.25-25.078,25.078
	v97.176h183.902V25.078z"/>
<g>
	<path style="fill:#DBD9D7;" d="M205.845,0h-16.718c-13.827,0-25.078,11.25-25.078,25.078v97.176h16.718V25.078
		C180.767,11.25,192.018,0,205.845,0z"/>
	<path style="fill:#DBD9D7;" d="M256,33.437c24.753,0,46.364-13.448,57.927-33.437H198.073
		C209.636,19.989,231.247,33.437,256,33.437z"/>
</g>
<circle style="fill:#FF9940;" cx="256" cy="256" r="41.796"/>
<g>
	<circle style="fill:#FFD042;" cx="256" cy="256" r="25.078"/>
	<path style="fill:#FFD042;" d="M256,197.486c-4.616,0-8.359-3.743-8.359-8.359v-16.718c0-4.616,3.743-8.359,8.359-8.359
		s8.359,3.743,8.359,8.359v16.718C264.359,193.743,260.616,197.486,256,197.486z"/>
	<path style="fill:#FFD042;" d="M222.571,206.447c-2.889,0-5.699-1.499-7.247-4.181l-8.359-14.478
		c-2.308-3.998-0.938-9.11,3.059-11.419c3.999-2.307,9.109-0.938,11.419,3.059l8.359,14.478
		C232.954,199.363,228.91,206.447,222.571,206.447z"/>
	<path style="fill:#FFD042;" d="M198.078,230.923c-1.418,0-2.856-0.362-4.172-1.121l-14.478-8.359
		c-3.998-2.308-5.368-7.421-3.059-11.419c2.308-3.999,7.42-5.369,11.419-3.059l14.478,8.359c3.115,1.798,4.758,5.512,3.988,9.027
		C205.422,228.146,201.961,230.923,198.078,230.923z"/>
	<path style="fill:#FFD042;" d="M189.127,264.359h-16.718c-4.616,0-8.359-3.743-8.359-8.359s3.743-8.359,8.359-8.359h16.718
		c4.616,0,8.359,3.743,8.359,8.359S193.743,264.359,189.127,264.359z"/>
	<path style="fill:#FFD042;" d="M183.615,306.156c-3.883,0-7.345-2.778-8.175-6.572c-0.77-3.515,0.874-7.229,3.988-9.027
		l14.478-8.359c3.998-2.306,9.11-0.938,11.419,3.059c2.308,3.998,0.938,9.11-3.059,11.419l-14.478,8.359
		C186.47,305.795,185.034,306.156,183.615,306.156z"/>
	<path style="fill:#FFD042;" d="M214.197,336.754c-6.338,0-10.383-7.082-7.232-12.54l8.359-14.478
		c2.308-3.999,7.421-5.369,11.419-3.059c3.998,2.308,5.368,7.421,3.059,11.419l-8.359,14.478
		C219.895,335.254,217.085,336.754,214.197,336.754z"/>
	<path style="fill:#FFD042;" d="M256,347.951c-4.616,0-8.359-3.743-8.359-8.359v-16.718c0-4.616,3.743-8.359,8.359-8.359
		s8.359,3.743,8.359,8.359v16.718C264.359,344.208,260.616,347.951,256,347.951z"/>
	<path style="fill:#FFD042;" d="M297.803,336.754c-2.889,0-5.699-1.499-7.247-4.181l-8.359-14.478
		c-2.308-3.998-0.938-9.11,3.059-11.419c3.999-2.307,9.11-0.938,11.419,3.059l8.359,14.478c2.308,3.998,0.938,9.11-3.059,11.419
		C300.659,336.392,299.222,336.754,297.803,336.754z"/>
	<path style="fill:#FFD042;" d="M328.385,306.156c-1.418,0-2.856-0.362-4.172-1.121l-14.478-8.359
		c-3.998-2.308-5.368-7.421-3.059-11.419c2.308-3.999,7.421-5.369,11.419-3.059l14.478,8.359c3.115,1.798,4.758,5.512,3.988,9.027
		C335.729,303.379,332.268,306.156,328.385,306.156z"/>
	<path style="fill:#FFD042;" d="M339.592,264.359h-16.718c-4.616,0-8.359-3.743-8.359-8.359s3.743-8.359,8.359-8.359h16.718
		c4.616,0,8.359,3.743,8.359,8.359S344.208,264.359,339.592,264.359z"/>
	<path style="fill:#FFD042;" d="M313.922,230.923c-3.883,0-7.345-2.778-8.175-6.572c-0.77-3.515,0.874-7.229,3.988-9.027
		l14.478-8.359c3.998-2.306,9.11-0.938,11.419,3.059c2.308,3.998,0.938,9.11-3.059,11.419l-14.478,8.359
		C316.778,230.562,315.341,230.923,313.922,230.923z"/>
	<path style="fill:#FFD042;" d="M289.429,206.447c-6.338,0-10.383-7.082-7.232-12.54l8.359-14.478
		c2.308-3.999,7.421-5.37,11.419-3.059c3.998,2.308,5.368,7.421,3.059,11.419l-8.359,14.478
		C295.127,204.947,292.318,206.447,289.429,206.447z"/>
</g>
<g>
	<path style="fill:#F5760F;" d="M214.204,439.902h-25.078c-4.616,0-8.359-3.743-8.359-8.359s3.743-8.359,8.359-8.359h16.718v-8.359
		h-16.718c-4.616,0-8.359-3.743-8.359-8.359v-25.078c0-4.616,3.743-8.359,8.359-8.359h25.078c4.616,0,8.359,3.743,8.359,8.359
		c0,4.616-3.743,8.359-8.359,8.359h-16.718v8.359h16.718c4.616,0,8.359,3.743,8.359,8.359v25.078
		C222.563,436.159,218.82,439.902,214.204,439.902z"/>
	<path style="fill:#F5760F;" d="M247.641,439.902c-4.616,0-8.359-3.743-8.359-8.359v-50.155c0-4.616,3.743-8.359,8.359-8.359h25.078
		c4.616,0,8.359,3.743,8.359,8.359v25.078c0,4.616-3.743,8.359-8.359,8.359H256v16.718C256,436.159,252.257,439.902,247.641,439.902
		z M256,398.106h8.359v-8.359H256V398.106z"/>
	<path style="fill:#F5760F;" d="M331.233,373.029h-25.078c-4.616,0-8.359,3.743-8.359,8.359v50.155c0,4.616,3.743,8.359,8.359,8.359
		s8.359-3.743,8.359-8.359v-16.718h8.359c4.616,0,8.359-3.743,8.359-8.359c0-4.616-3.743-8.359-8.359-8.359h-8.359v-8.359h16.718
		c4.616,0,8.359-3.743,8.359-8.359C339.592,376.771,335.849,373.029,331.233,373.029z"/>
</g>
<g>
</g>
<g>
</g>
<g>
</g>
<g>
</g>
<g>
</g>
<g>
</g>
<g>
</g>
<g>
</g>
<g>
</g>
<g>
</g>
<g>
</g>
<g>
</g>
<g>
</g>
<g>
</g>
<g>
</g>
</svg>
