<?xml version="1.0" encoding="iso-8859-1"?>
<!-- Generator: Adobe Illustrator 19.0.0, SVG Export Plug-In . SVG Version: 6.00 Build 0)  -->
<svg version="1.1" id="Capa_1" xmlns="http://www.w3.org/2000/svg" xmlns:xlink="http://www.w3.org/1999/xlink" x="0px" y="0px"
	 viewBox="0 0 512.909 512.909" style="enable-background:new 0 0 512.909 512.909;" xml:space="preserve">
<g transform="translate(-1)">
	<g>
		<path style="fill:#547580;" d="M345.73,235.611H169.178c-4.875,0-8.828,3.952-8.828,8.828c0,4.875,3.952,8.828,8.828,8.828H345.73
			c4.875,0,8.828-3.952,8.828-8.828C354.558,239.564,350.606,235.611,345.73,235.611z"/>
		<path style="fill:#547580;" d="M257.454,270.922c-18.934-0.706-37.318,6.441-50.803,19.75c-1.644,1.779-2.406,4.199-2.078,6.599
			c0.329,2.4,1.714,4.526,3.775,5.797c1.842,1.243,4.016,1.901,6.238,1.888c3.008,0.047,5.896-1.177,7.956-3.371
			c9.405-8.869,21.996-13.56,34.911-13.009c12.916-0.551,25.506,4.14,34.912,13.009c2.059,2.193,4.947,3.417,7.955,3.371
			c2.222,0.013,4.396-0.645,6.238-1.888c2.062-1.271,3.447-3.398,3.775-5.797c0.329-2.4-0.434-4.821-2.078-6.599
			C294.772,277.363,276.388,270.216,257.454,270.922z"/>
		<path style="fill:#547580;" d="M190.041,117.172c2.466-2.621,4.922-5.246,7.44-7.802c3.228-3.552,7.457-6.043,12.129-7.142
			c5.834-0.767,11.737,0.762,16.465,4.263c2.624,1.775,5.998,2.008,8.841,0.61c2.843-1.398,4.719-4.212,4.916-7.373
			c0.197-3.162-1.316-6.187-3.963-7.926c-8.55-6.162-19.209-8.65-29.604-6.909c-8.181,1.749-15.631,5.963-21.345,12.073
			c-2.629,2.664-5.19,5.397-7.75,8.129l-15.25,16.211c-11.155,11.871-22.328,23.727-33.517,35.569l-98.06,103.638
			c-2.188,2.29-2.981,5.577-2.078,8.613c0.903,3.036,3.363,5.356,6.446,6.079c3.084,0.723,6.318-0.262,8.477-2.58l98.043-103.612
			c11.207-11.849,22.391-23.72,33.552-35.612L190.041,117.172z"/>
		<path style="fill:#547580;" d="M484.566,260.513l-98.06-103.638c-11.198-11.832-22.371-23.688-33.517-35.569l-15.25-16.211
			c-2.56-2.733-5.121-5.466-7.759-8.129c-5.71-6.112-13.157-10.326-21.336-12.073c-10.394-1.739-21.053,0.749-29.603,6.909
			c-2.648,1.74-4.16,4.764-3.963,7.926c0.197,3.162,2.073,5.976,4.916,7.373c2.843,1.398,6.217,1.165,8.841-0.61
			c4.727-3.505,10.632-5.033,16.465-4.263c4.67,1.098,8.897,3.589,12.12,7.142c2.526,2.556,4.983,5.181,7.448,7.802l15.259,16.228
			c11.172,11.884,22.356,23.754,33.552,35.612l98.044,103.612c2.158,2.318,5.393,3.303,8.477,2.58s5.544-3.043,6.446-6.079
			C487.547,266.09,486.754,262.803,484.566,260.513z"/>
	</g>
	<g>
		<path style="fill:#2C3E50;" d="M199.016,252.874c-25.865-22.952-62.322-27.807-95.161-27.012
			c-15.868-0.192-31.664,2.162-46.786,6.974c-41.754,15.36-59.498,61.263-55.526,104.077c3.619,40.607,28.071,79.183,68.061,89.335
			c0.48,0.076,0.953,0.194,1.412,0.353c36.193,8.474,71.415-11.829,97.456-36.193c11.808-11.178,22.537-23.444,32.045-36.634
			c10.155-12.506,17.284-27.188,20.832-42.902C224.223,289.002,215.815,267.167,199.016,252.874z"/>
		<path style="fill:#2C3E50;" d="M457.841,232.835c-15.122-4.811-30.918-7.166-46.786-6.974
			c-32.839-0.794-69.297,4.061-95.161,27.012c-16.799,14.294-25.207,36.128-22.333,57.997c3.548,15.714,10.678,30.396,20.832,42.902
			c9.508,13.19,20.237,25.456,32.045,36.634c26.04,24.364,61.262,44.668,97.455,36.193c0.46-0.159,0.932-0.277,1.412-0.353
			c39.989-10.152,64.442-48.728,68.061-89.335C517.338,294.098,499.594,248.195,457.841,232.835z"/>
	</g>
	<g>
		<path style="fill:#547580;" d="M45.592,322.62c-3.57-0.001-6.788-2.152-8.154-5.45c-1.366-3.298-0.611-7.094,1.913-9.619
			l35.31-35.31c2.223-2.264,5.49-3.16,8.556-2.348c3.067,0.812,5.462,3.207,6.274,6.274c0.812,3.067-0.085,6.333-2.348,8.556
			l-35.31,35.31C50.18,321.692,47.934,322.623,45.592,322.62z"/>
		<path style="fill:#547580;" d="M107.385,304.965c-3.57-0.001-6.788-2.152-8.154-5.45c-1.366-3.298-0.611-7.094,1.913-9.619
			l35.31-35.31c2.223-2.264,5.49-3.16,8.556-2.348s5.462,3.207,6.274,6.274c0.812,3.067-0.085,6.333-2.348,8.556l-35.31,35.31
			C111.973,304.037,109.727,304.968,107.385,304.965z"/>
		<path style="fill:#547580;" d="M45.592,366.758c-3.57-0.001-6.788-2.152-8.154-5.45c-1.366-3.298-0.611-7.094,1.913-9.619
			l35.31-35.31c2.223-2.264,5.49-3.16,8.556-2.348c3.067,0.812,5.462,3.207,6.274,6.274c0.812,3.067-0.085,6.333-2.348,8.556
			l-35.31,35.31C50.18,365.83,47.934,366.761,45.592,366.758z"/>
		<path style="fill:#547580;" d="M354.558,322.62c-3.57-0.001-6.788-2.152-8.154-5.45c-1.366-3.298-0.611-7.094,1.913-9.619
			l35.31-35.31c2.223-2.264,5.49-3.16,8.556-2.348c3.067,0.812,5.462,3.207,6.274,6.274c0.812,3.067-0.085,6.333-2.348,8.556
			l-35.31,35.31C359.146,321.692,356.899,322.623,354.558,322.62z"/>
		<path style="fill:#547580;" d="M416.351,304.965c-3.57-0.001-6.788-2.152-8.154-5.45c-1.366-3.298-0.611-7.094,1.913-9.619
			l35.31-35.31c2.223-2.264,5.49-3.16,8.556-2.348c3.067,0.812,5.462,3.207,6.274,6.274c0.812,3.067-0.085,6.333-2.348,8.556
			l-35.31,35.31C420.939,304.037,418.693,304.968,416.351,304.965z"/>
		<path style="fill:#547580;" d="M354.558,366.758c-3.57-0.001-6.788-2.152-8.154-5.45s-0.611-7.094,1.913-9.619l35.31-35.31
			c2.223-2.264,5.49-3.16,8.556-2.348c3.067,0.812,5.462,3.207,6.274,6.274c0.812,3.067-0.085,6.333-2.348,8.556l-35.31,35.31
			C359.146,365.83,356.899,366.761,354.558,366.758z"/>
	</g>
</g>
<g>
</g>
<g>
</g>
<g>
</g>
<g>
</g>
<g>
</g>
<g>
</g>
<g>
</g>
<g>
</g>
<g>
</g>
<g>
</g>
<g>
</g>
<g>
</g>
<g>
</g>
<g>
</g>
<g>
</g>
</svg>
