<?xml version="1.0" encoding="iso-8859-1"?>
<!-- Generator: Adobe Illustrator 19.0.0, SVG Export Plug-In . SVG Version: 6.00 Build 0)  -->
<svg version="1.1" id="Capa_1" xmlns="http://www.w3.org/2000/svg" xmlns:xlink="http://www.w3.org/1999/xlink" x="0px" y="0px"
	 viewBox="0 0 512 512" style="enable-background:new 0 0 512 512;" xml:space="preserve">
<g>
	<polygon style="fill:#B0D3F0;" points="485.517,123.674 485.517,123.586 467.95,106.019 467.862,106.019 441.379,79.448 361.931,0 
		326.621,0 319.823,10.152 317.793,8.828 194.207,8.828 192.177,10.152 185.379,0 150.069,0 26.483,123.586 0,150.069 
		79.448,229.517 105.931,203.034 105.931,256 105.931,346.306 105.931,512 211.862,512 256,512 406.069,512 406.069,476.69 
		406.069,439.79 406.069,345.865 406.069,203.034 432.552,229.517 512,150.069 	"/>
	<path style="fill:#F18D46;" d="M220.69,282.483c-0.015-9.492-5.102-18.253-13.338-22.972c-8.236-4.719-18.366-4.678-26.563,0.108
		c-1.702-1.671-3.532-3.206-5.473-4.59c0.818-2.539,1.234-5.189,1.236-7.857c0-14.626-11.857-26.483-26.483-26.483
		c-14.626,0-26.483,11.857-26.483,26.483c0.001,2.667,0.418,5.318,1.236,7.857c-1.942,1.385-3.772,2.92-5.473,4.59
		c-4.067-2.388-8.702-3.638-13.418-3.619v90.306c6.559,5.928,15.655,8.17,24.218,5.967c8.562-2.203,15.448-8.556,18.331-16.913
		c1.069-2.789,1.608-5.753,1.589-8.739c-0.019,2.987,0.52,5.95,1.589,8.739c3.527,10.125,12.823,17.114,23.529,17.692
		c10.706,0.578,20.7-5.371,25.296-15.057c4.596-9.686,2.884-21.19-4.334-29.118C210.004,307.914,220.737,296.371,220.69,282.483z
		 M156.337,297.578c-2.525,2.546-6.341,3.312-9.653,1.937c-3.312-1.375-5.463-4.618-5.442-8.204
		c0.013-1.154,0.253-2.293,0.706-3.354c0.427-1.08,1.056-2.069,1.854-2.913c2.562-2.459,6.33-3.185,9.622-1.854
		c2.217,0.804,3.963,2.55,4.767,4.767c0.453,1.061,0.693,2.201,0.706,3.354C158.863,293.647,157.949,295.886,156.337,297.578z"/>
	<rect x="256" y="476.69" style="fill:#4482C3;" width="150.069" height="35.31"/>
	<polygon style="fill:#90BAE1;" points="256,441.379 256,512 211.862,512 	"/>
	<path style="fill:#F18D46;" d="M401.479,347.895c-1.702-1.671-3.532-3.206-5.473-4.59c0.818-2.539,1.234-5.189,1.236-7.857
		c0-14.626-11.857-26.483-26.483-26.483c-14.626,0-26.483,11.857-26.483,26.483c0.001,2.667,0.418,5.318,1.236,7.857
		c-1.942,1.385-3.772,2.92-5.473,4.59c-9.418-5.531-21.265-4.713-29.835,2.058c-8.57,6.771-12.105,18.108-8.903,28.55
		s12.485,17.848,23.377,18.651c-7.224,7.927-8.941,19.435-4.344,29.125s14.594,15.641,25.304,15.062s20.007-7.575,23.531-17.704
		c1.069-2.789,1.608-5.753,1.589-8.739c-0.019,2.987,0.52,5.95,1.589,8.739c3.65,10.629,13.655,17.761,24.894,17.743
		c3.015,0.019,6.008-0.52,8.828-1.589v-93.926C404.451,346.321,402.905,347.005,401.479,347.895z M377.026,385.854
		c-2.525,2.546-6.341,3.312-9.653,1.937c-3.312-1.375-5.463-4.618-5.442-8.204c0.013-1.154,0.253-2.294,0.706-3.354
		c0.427-1.08,1.056-2.069,1.854-2.913c2.562-2.459,6.33-3.185,9.622-1.854c2.217,0.804,3.963,2.55,4.767,4.767
		c0.453,1.061,0.693,2.201,0.706,3.354C379.552,381.923,378.638,384.161,377.026,385.854z"/>
	<g>
		
			<rect x="34.24" y="120.366" transform="matrix(-0.7071 0.7071 -0.7071 -0.7071 215.2568 263.9268)" style="fill:#4482C3;" width="37.456" height="112.358"/>
		<polygon style="fill:#4482C3;" points="512,150.069 432.552,229.517 406.069,203.034 433.699,175.404 485.517,123.674 		"/>
	</g>
	<g>
		<polygon style="fill:#FAC176;" points="256,105.931 150.069,70.621 150.069,0 185.379,0 192.177,10.152 		"/>
		<polygon style="fill:#FAC176;" points="361.931,0 361.931,79.448 256,105.931 319.823,10.152 326.621,0 		"/>
	</g>
	<polygon style="fill:#95A5A5;" points="319.823,10.152 256,105.931 192.177,10.152 194.207,8.828 317.793,8.828 	"/>
	<path style="fill:#F18D46;" d="M485.517,123.586v0.088l-51.818,51.73c-8.689-2.614-15.428-9.505-17.847-18.251
		c-2.419-8.745-0.18-18.12,5.93-24.828c-10.873-0.823-20.13-8.228-23.32-18.655c-3.19-10.427,0.339-21.744,8.89-28.51
		c8.551-6.766,20.376-7.597,29.79-2.094c1.33-1.3,2.746-2.509,4.237-3.619l26.483,26.571h0.088L485.517,123.586z"/>
	<g>
		<path style="fill:#4482C3;" d="M397.241,203.034c-2.342,0.003-4.588-0.928-6.241-2.586l-17.655-17.655
			c-3.394-3.456-3.369-9.001,0.056-12.426c3.425-3.425,8.97-3.45,12.426-0.056l17.655,17.655c2.524,2.525,3.279,6.321,1.913,9.619
			C404.029,200.883,400.811,203.034,397.241,203.034z"/>
		<path style="fill:#4482C3;" d="M256,176.552c-4.875,0-8.828-3.952-8.828-8.828v-52.966c0-4.875,3.952-8.828,8.828-8.828
			s8.828,3.952,8.828,8.828v52.966C264.828,172.599,260.875,176.552,256,176.552z"/>
		<path style="fill:#4482C3;" d="M256,450.207c-4.875,0-8.828-3.952-8.828-8.828v-17.655c0-4.875,3.952-8.828,8.828-8.828
			s8.828,3.952,8.828,8.828v17.655C264.828,446.255,260.875,450.207,256,450.207z"/>
		<path style="fill:#4482C3;" d="M194.207,485.517h-79.448c-4.875,0-8.828-3.952-8.828-8.828s3.952-8.828,8.828-8.828h79.448
			c4.875,0,8.828,3.952,8.828,8.828S199.082,485.517,194.207,485.517z"/>
	</g>
	<path style="fill:#2C3E50;" d="M264.828,52.966h-17.655c-4.875,0-8.828-3.952-8.828-8.828s3.952-8.828,8.828-8.828h17.655
		c4.875,0,8.828,3.952,8.828,8.828S269.703,52.966,264.828,52.966z"/>
	<g>
		<path style="fill:#F0C419;" d="M158.897,291.31c0,4.875-3.952,8.828-8.828,8.828s-8.828-3.952-8.828-8.828
			c0.013-1.154,0.253-2.293,0.706-3.354c0.427-1.08,1.056-2.069,1.854-2.913c2.562-2.459,6.33-3.185,9.622-1.854
			c2.217,0.804,3.963,2.55,4.767,4.767C158.644,289.017,158.884,290.157,158.897,291.31z"/>
		<path style="fill:#F0C419;" d="M379.586,379.586c0,4.875-3.952,8.828-8.828,8.828s-8.828-3.952-8.828-8.828
			c0.013-1.154,0.253-2.294,0.706-3.354c0.427-1.08,1.056-2.069,1.854-2.913c2.562-2.459,6.33-3.185,9.622-1.854
			c2.217,0.804,3.963,2.55,4.767,4.767C379.333,377.293,379.573,378.433,379.586,379.586z"/>
	</g>
	<path style="fill:#4482C3;" d="M114.759,203.034c-3.57-0.001-6.788-2.152-8.154-5.45c-1.366-3.298-0.611-7.094,1.913-9.619
		l17.655-17.655c3.456-3.394,9.001-3.369,12.426,0.056c3.425,3.425,3.45,8.97,0.056,12.426L121,200.448
		C119.346,202.106,117.1,203.037,114.759,203.034z"/>
</g>
<g>
</g>
<g>
</g>
<g>
</g>
<g>
</g>
<g>
</g>
<g>
</g>
<g>
</g>
<g>
</g>
<g>
</g>
<g>
</g>
<g>
</g>
<g>
</g>
<g>
</g>
<g>
</g>
<g>
</g>
</svg>
