<svg height="512pt" viewBox="-10 0 512 512" width="512pt" xmlns="http://www.w3.org/2000/svg"><path d="m258.410156 10.78125c-.710937-6.144531-5.914062-10.78125-12.101562-10.78125s-11.390625 4.636719-12.105469 10.78125l-8.613281 74.210938h41.4375zm0 0" fill="#3a4047"/><path d="m201.171875 512c-37.125 0-67.328125-30.203125-67.328125-67.332031v-23.921875c0-12.261719 9.9375-22.199219 22.195312-22.199219 12.257813 0 22.199219 9.9375 22.199219 22.199219v23.921875c0 12.648437 10.289063 22.9375 22.933594 22.9375 12.648437 0 22.9375-10.289063 22.9375-22.9375v-260.691407c0-12.261718 9.941406-22.199218 22.199219-22.199218 12.257812 0 22.195312 9.9375 22.195312 22.199218v260.691407c0 37.128906-30.203125 67.332031-67.332031 67.332031zm0 0" fill="#3a4047"/><path d="m246.800781 42.242188c223.449219 0 245.816407 205.335937 245.816407 205.335937-10.171876-13.929687-33.90625-23.695313-61.558594-23.695313-27.691406 0-51.449219 9.785157-61.601563 23.734376v-.039063zm0 0" fill="#609ce7"/><path d="m124.15625 246.316406c-.347656.421875-.683594.855469-.996094 1.300782v-.039063c-10.171875-13.929687-33.910156-23.695313-61.558594-23.695313-27.695312 0-51.449218 9.785157-61.601562 23.734376 0 0 23.3125-205.070313 246.308594-205.375v.253906zm0 0" fill="#7eb8ff"/><path d="m246.308594 161.777344c-12.257813 0-22.199219 9.9375-22.199219 22.199218v85.140626c4.5 4.644531 10.429687 7.855468 17.046875 8.972656 1.722656.292968 3.445312.433594 5.15625.433594 8.351562 0 16.367188-3.402344 22.191406-9.417969v-85.128907c0-12.261718-9.9375-22.199218-22.195312-22.199218zm0 0" fill="#30343b"/><path d="m246.308594 42.496094c-8.394532 4.480468-121.464844 67.382812-122.152344 203.820312 10.644531-13.25 33.769531-22.433594 60.59375-22.433594 27.644531 0 51.355469 9.753907 61.539062 23.667969l.019532.066407 31.566406-102.582032zm0 0" fill="#609ce7"/><path d="m369.457031 247.578125c-10.160156-13.929687-33.894531-23.695313-61.558593-23.695313-27.683594 0-51.4375 9.785157-61.589844 23.734376v-205.121094c.324218-.167969.492187-.253906.492187-.253906s122.65625 62.75 122.65625 205.335937zm0 0" fill="#7eb8ff"/></svg>